<?xml version="1.0" encoding="utf-8"?>
<!-- Generator: Adobe Illustrator 15.0.0, SVG Export Plug-In . SVG Version: 6.00 Build 0)  -->
<!DOCTYPE svg PUBLIC "-//W3C//DTD SVG 1.1//EN" "http://www.w3.org/Graphics/SVG/1.1/DTD/svg11.dtd">
<svg version="1.1" id="Layer_1" xmlns="http://www.w3.org/2000/svg" xmlns:xlink="http://www.w3.org/1999/xlink" x="0px" y="0px"
	 width="181.5px" height="41.139px" viewBox="0 0 181.5 41.139" enable-background="new 0 0 181.5 41.139" xml:space="preserve">
<g>
	<path fill="#C71783" d="M129.695,9.152c0,1.752-1.37,3.08-3.505,3.08h-1.669v2.56c0,0.506-0.411,0.931-0.919,0.931
		c-0.521,0-0.933-0.424-0.933-0.931V7.056c0-0.589,0.428-1.013,1.014-1.013h2.507C128.325,6.043,129.695,7.427,129.695,9.152
		 M127.9,9.152c0-1.125-0.767-1.535-1.794-1.535h-1.585v3.04h1.585C127.134,10.656,127.9,10.286,127.9,9.152"/>
	<path fill="#C71783" d="M137.608,9.356v5.463c0,0.493-0.438,0.89-0.919,0.89c-0.491,0-0.902-0.397-0.902-0.89v-0.261
		c-0.111,0.426-0.835,1.165-2.026,1.165c-1.504,0-3.312-1.165-3.312-3.656c0-2.437,1.82-3.642,3.312-3.642
		c0.973,0,1.754,0.521,2.026,1.163V9.356c0-0.478,0.411-0.891,0.902-0.891C137.171,8.465,137.608,8.878,137.608,9.356
		 M135.868,12.067c0-1.546-1.014-2.108-1.78-2.108c-0.902,0-1.849,0.712-1.849,2.108c0,1.411,0.946,2.109,1.849,2.109
		C134.854,14.176,135.868,13.614,135.868,12.067"/>
	<path fill="#C71783" d="M145.781,9.275c0,0.164-0.054,0.301-0.111,0.411l-3.544,7.982c-0.192,0.436-0.522,0.628-0.862,0.628
		c-0.468,0-0.794-0.37-0.794-0.808c0-0.164,0.054-0.301,0.094-0.411l0.781-1.781L138.8,9.685c-0.044-0.109-0.098-0.247-0.098-0.411
		c0-0.438,0.356-0.808,0.821-0.808c0.344,0,0.674,0.192,0.862,0.629l1.834,4.245l1.878-4.245c0.192-0.438,0.505-0.629,0.849-0.629
		C145.424,8.467,145.781,8.837,145.781,9.275"/>
	<path fill="#C71783" d="M158.689,11.712v3.093c0,0.492-0.41,0.891-0.902,0.891c-0.478,0-0.889-0.399-0.889-0.891v-3.093
		c0-1.232-0.646-1.74-1.453-1.74c-1.232,0-1.656,1.151-1.697,1.535v-0.015v0.22v3.093c0,0.492-0.41,0.891-0.901,0.891
		c-0.481,0-0.893-0.399-0.893-0.891v-3.093c0-1.232-0.643-1.74-1.45-1.74c-1.232,0-1.643,1.151-1.697,1.535v3.298
		c0,0.492-0.41,0.891-0.892,0.891c-0.491,0-0.902-0.399-0.902-0.891V9.369c0-0.491,0.411-0.902,0.902-0.902
		c0.481,0,0.892,0.411,0.892,0.902v0.685c0.055-0.491,0.862-1.616,2.34-1.616c1.026,0,1.959,0.493,2.369,1.712
		c0.384-0.849,1.246-1.712,2.572-1.712C157.471,8.438,158.689,9.342,158.689,11.712"/>
	<path fill="#C71783" d="M167.108,11.779c0,0.712-0.395,0.959-1.121,0.959l-4.066-0.029c0.165,1,0.959,1.535,1.959,1.535
		c0.491,0,0.724-0.111,1.135-0.288c0.245-0.109,0.438-0.219,0.67-0.219c0.384,0,0.615,0.273,0.615,0.614
		c0,0.221-0.094,0.466-0.438,0.754c-0.505,0.357-1.191,0.589-2.053,0.589c-1.821,0-3.75-1.123-3.75-3.615
		c0-2.464,2.04-3.655,3.602-3.655C165.22,8.425,167.108,9.657,167.108,11.779 M161.921,11.478h3.423
		c-0.138-1.054-0.905-1.491-1.683-1.491C162.88,9.987,162.046,10.424,161.921,11.478"/>
	<path fill="#C71783" d="M175.213,11.712v3.093c0,0.492-0.41,0.891-0.901,0.891c-0.481,0-0.893-0.399-0.893-0.891v-3.093
		c0-1.232-0.643-1.74-1.45-1.74c-1.232,0-1.643,1.151-1.696,1.535v3.298c0,0.492-0.411,0.891-0.893,0.891
		c-0.491,0-0.902-0.399-0.902-0.891V9.369c0-0.491,0.411-0.902,0.902-0.902c0.481,0,0.893,0.411,0.893,0.902v0.685
		c0.054-0.491,0.861-1.616,2.339-1.616C173.995,8.438,175.213,9.342,175.213,11.712"/>
	<path fill="#C71783" d="M180.717,14.736c0,0.629-0.616,0.959-1.545,0.959c-0.933,0-1.878-0.301-1.878-2.205V9.918h-0.397
		c-0.438,0-0.724-0.288-0.724-0.699c0-0.424,0.286-0.712,0.724-0.712h0.397V7.576c0-0.493,0.41-0.903,0.905-0.903
		c0.491,0,0.889,0.41,0.889,0.903v0.931h0.905c0.451,0,0.724,0.288,0.724,0.712c0,0.411-0.272,0.699-0.724,0.699h-0.905v3.627
		c0,0.399,0.138,0.603,0.438,0.603c0.151,0,0.37-0.054,0.521-0.054C180.458,14.066,180.717,14.312,180.717,14.736"/>
	<path fill="#C71783" d="M131.641,24.417c-0.111,2.683-2.124,4.065-4.245,4.065c-2.437,0-4.86-1.999-4.86-4.888
		c0-2.889,2.438-4.887,4.82-4.887c0.956,0,1.71,0.246,2.285,0.587c0.505,0.329,0.821,0.63,0.821,1.083
		c0,0.533-0.424,0.834-0.861,0.834c-0.344,0-0.589-0.178-0.74-0.286c-0.206-0.138-0.714-0.466-1.478-0.466
		c-1.549,0-2.919,1.368-2.919,3.135c0,1.768,1.356,3.134,2.932,3.134c1.081,0,2.286-0.669,2.451-1.941h-1.563
		c-0.424,0-0.808-0.316-0.808-0.754c0-0.451,0.384-0.768,0.808-0.768h2.37C131.338,23.266,131.681,23.747,131.641,24.417"/>
	<path fill="#C71783" d="M139.947,22.116v5.465c0,0.491-0.438,0.888-0.915,0.888c-0.495,0-0.905-0.396-0.905-0.888v-0.26
		c-0.108,0.424-0.835,1.161-2.026,1.161c-1.505,0-3.313-1.161-3.313-3.655c0-2.437,1.821-3.642,3.313-3.642
		c0.973,0,1.754,0.52,2.026,1.164v-0.233c0-0.479,0.41-0.889,0.905-0.889C139.51,21.228,139.947,21.638,139.947,22.116
		 M138.211,24.827c0-1.549-1.014-2.108-1.78-2.108c-0.902,0-1.849,0.712-1.849,2.108c0,1.41,0.946,2.11,1.849,2.11
		C137.197,26.938,138.211,26.376,138.211,24.827"/>
	<path fill="#C71783" d="M145.589,27.496c0,0.63-0.615,0.96-1.548,0.96c-0.93,0-1.875-0.304-1.875-2.205v-3.573h-0.397
		c-0.438,0-0.724-0.287-0.724-0.698c0-0.426,0.286-0.712,0.724-0.712h0.397v-0.932c0-0.492,0.41-0.902,0.902-0.902
		c0.494,0,0.892,0.411,0.892,0.902v0.932h0.902c0.451,0,0.727,0.286,0.727,0.712c0,0.411-0.275,0.698-0.727,0.698h-0.902v3.631
		c0,0.394,0.135,0.599,0.438,0.599c0.151,0,0.37-0.054,0.521-0.054C145.33,26.826,145.589,27.073,145.589,27.496"/>
	<path fill="#C71783" d="M153.459,24.541c0,0.71-0.394,0.959-1.121,0.959l-4.066-0.03c0.165,1,0.96,1.535,1.956,1.535
		c0.495,0,0.727-0.111,1.138-0.289c0.246-0.108,0.438-0.219,0.67-0.219c0.384,0,0.619,0.275,0.619,0.615
		c0,0.219-0.098,0.469-0.44,0.754c-0.505,0.357-1.192,0.59-2.054,0.59c-1.821,0-3.75-1.125-3.75-3.615
		c0-2.464,2.04-3.655,3.599-3.655C151.57,21.186,153.459,22.417,153.459,24.541 M148.271,24.239h3.424
		c-0.139-1.056-0.905-1.493-1.687-1.493C149.231,22.745,148.396,23.183,148.271,24.239"/>
	<path fill="#C71783" d="M164.729,22.075c0,0.123-0.084,0.261-0.125,0.409l-1.834,5.244c-0.151,0.454-0.479,0.687-0.849,0.687
		c-0.397,0-0.714-0.232-0.889-0.687l-1.673-3.914l-1.67,3.914c-0.178,0.454-0.505,0.687-0.875,0.687
		c-0.396,0-0.713-0.232-0.861-0.687l-1.821-5.244c-0.057-0.148-0.124-0.286-0.124-0.409c0-0.479,0.37-0.848,0.848-0.848
		c0.316,0,0.656,0.189,0.754,0.478l1.313,4.122l1.629-4.055c0.151-0.355,0.428-0.545,0.808-0.545c0.397,0,0.673,0.189,0.808,0.545
		l1.63,4.055l1.315-4.122c0.095-0.288,0.438-0.478,0.768-0.478C164.345,21.228,164.729,21.596,164.729,22.075"/>
	<path fill="#C71783" d="M172.433,22.116v5.465c0,0.491-0.438,0.888-0.915,0.888c-0.495,0-0.905-0.396-0.905-0.888v-0.26
		c-0.108,0.424-0.835,1.161-2.023,1.161c-1.508,0-3.315-1.161-3.315-3.655c0-2.437,1.821-3.642,3.315-3.642
		c0.97,0,1.751,0.52,2.023,1.164v-0.233c0-0.479,0.41-0.889,0.905-0.889C171.995,21.228,172.433,21.638,172.433,22.116
		 M170.696,24.827c0-1.549-1.014-2.108-1.78-2.108c-0.902,0-1.849,0.712-1.849,2.108c0,1.41,0.946,2.11,1.849,2.11
		C169.683,26.938,170.696,26.376,170.696,24.827"/>
	<path fill="#C71783" d="M180.605,22.033c0,0.165-0.054,0.303-0.107,0.411l-3.545,7.983c-0.194,0.438-0.521,0.63-0.864,0.63
		c-0.465,0-0.795-0.37-0.795-0.808c0-0.165,0.058-0.303,0.098-0.411l0.781-1.78l-2.548-5.614c-0.041-0.108-0.095-0.246-0.095-0.411
		c0-0.438,0.354-0.806,0.821-0.806c0.34,0,0.67,0.189,0.861,0.629l1.835,4.243l1.875-4.243c0.191-0.439,0.508-0.629,0.852-0.629
		C180.252,21.228,180.605,21.596,180.605,22.033"/>
	<path fill="#B1B3B5" d="M24.563,16.588c0,6.998-4.446,12.104-11.909,12.104c-6.922,0-11.872-4.137-11.872-11.794H5.81
		c0,4.64,2.242,6.998,6.845,6.998c4.64,0,6.806-3.208,6.806-7.307V5.838h-8.159V1.081h13.262V16.588z"/>
	<path fill="#B1B3B5" d="M32.644,20.299c0.31,2.36,2.36,4.061,5.685,4.061c1.74,0,4.021-0.656,5.105-1.779l3.016,2.978
		c-2.011,2.09-5.298,3.097-8.198,3.097c-6.574,0-10.48-4.063-10.48-10.172c0-5.801,3.945-9.977,10.131-9.977
		c6.38,0,10.362,3.943,9.628,11.793H32.644z M43.008,16.394c-0.31-2.474-2.244-3.712-4.95-3.712c-2.553,0-4.64,1.238-5.336,3.712
		H43.008z"/>
	<path fill="#B1B3B5" d="M65.201,28.15v-9.977c0-2.899-1.585-5.104-4.601-5.104c-2.901,0-4.873,2.436-4.873,5.337v9.745h-4.679
		V9.048h4.214l0.31,2.59c1.934-1.896,3.868-2.861,6.264-2.861c4.485,0,8.082,3.364,8.082,9.357V28.15H65.201z"/>
	<path fill="#B1B3B5" d="M88.942,7.153l3.481,2.629l-2.126,2.708c1.47,1.661,2.009,3.556,2.009,5.645
		c0,2.36-0.888,5.687-4.021,7.114c3.171,1.585,3.942,3.867,3.942,6.305c0,5.261-4.02,8.506-9.55,8.506s-9.667-3.363-9.667-8.506
		h4.679c0,2.474,2.282,4.1,4.988,4.1c2.708,0,4.833-1.471,4.833-4.1s-2.474-3.827-4.833-3.827c-5.955,0-9.667-3.636-9.667-9.592
		c0-5.955,4.333-9.667,9.667-9.667c1.51,0,3.055,0.193,4.369,1.082L88.942,7.153z M77.689,18.134c0,3.326,2.243,5.297,4.988,5.297
		c2.708,0,4.95-2.01,4.95-5.297c0-3.287-2.242-5.375-4.95-5.375C79.933,12.759,77.689,14.808,77.689,18.134"/>
	<path fill="#B1B3B5" d="M110.441,9.085l-0.121,2.033c-1.812-1.727-4.269-2.787-6.965-2.787c-5.584,0-10.107,4.525-10.107,10.109
		c0,3.903,2.208,7.29,5.446,8.969c1.524,0.892,3.372,1.336,5.405,1.322c1.781-0.037,4.157-0.794,5.521-2.362
		c0.242-0.186,0.475-0.388,0.696-0.606l0.202,2.387h4.446V9.085H110.441z M103.746,24.4c-3.13,0-5.645-2.167-5.645-5.803
		c0-3.635,2.515-5.763,5.645-5.763C111.172,12.834,111.172,24.4,103.746,24.4"/>
</g>
</svg>
